<?xml version="1.0" encoding="UTF-8"?>
<svg version="1.1" xmlns="http://www.w3.org/2000/svg" width="512" height="512">
<path d="M0 0 C1.01790619 0.00215515 2.03581238 0.0043103 3.08456421 0.00653076 C17.69363523 0.05620146 32.02575853 0.30709809 46.375 3.3125 C47.34985352 3.51117676 48.32470703 3.70985352 49.32910156 3.91455078 C97.7109774 14.03517194 141.69928269 35.9516877 177.375 70.3125 C178.3640332 71.26068604 178.3640332 71.26068604 179.37304688 72.22802734 C188.86130305 81.37247479 197.6012044 90.66984009 205.375 101.3125 C206.23306152 102.46355017 207.09113451 103.61459177 207.94921875 104.765625 C213.98736829 112.95680614 219.34595521 121.47054105 224.375 130.3125 C224.73948242 130.94430176 225.10396484 131.57610352 225.47949219 132.22705078 C247.08534998 169.97532572 256.85198095 212.74189997 256.6875 255.9375 C256.68534485 256.95540619 256.6831897 257.97331238 256.68096924 259.02206421 C256.63129854 273.63113523 256.38040191 287.96325853 253.375 302.3125 C253.07698486 303.77478027 253.07698486 303.77478027 252.77294922 305.26660156 C242.65232806 353.6484774 220.7358123 397.63678269 186.375 433.3125 C185.74287598 433.97185547 185.11075195 434.63121094 184.45947266 435.31054688 C175.31502521 444.79880305 166.01765991 453.5387044 155.375 461.3125 C154.22394983 462.17056152 153.07290823 463.02863451 151.921875 463.88671875 C143.73224019 469.92427396 135.22961724 475.30707302 126.375 480.3125 C125.66778809 480.7146875 124.96057617 481.116875 124.23193359 481.53125 C101.09654164 494.5566741 75.92537591 503.30551461 49.9375 508.625 C49.21860596 508.77235596 48.49971191 508.91971191 47.7590332 509.0715332 C33.08339502 511.86090125 18.55831162 512.66142619 3.64770508 512.62817383 C0.70811513 512.6250221 -2.2304558 512.64854926 -5.16992188 512.67382812 C-18.54306192 512.71848737 -31.43916711 511.51301542 -44.625 509.3125 C-46.33055054 509.03031616 -46.33055054 509.03031616 -48.07055664 508.74243164 C-91.33802759 500.97044532 -132.38793216 480.98345309 -165.625 452.3125 C-166.37007813 451.67828125 -167.11515625 451.0440625 -167.8828125 450.390625 C-181.38779833 438.57948485 -194.05918743 425.82889772 -204.625 411.3125 C-205.48149066 410.16255169 -206.33826433 409.01281411 -207.1953125 407.86328125 C-213.23534209 399.67315742 -218.61867614 391.16870382 -223.625 382.3125 C-224.0271875 381.60528809 -224.429375 380.89807617 -224.84375 380.16943359 C-237.8691741 357.03404164 -246.61801461 331.86287591 -251.9375 305.875 C-252.08485596 305.15610596 -252.23221191 304.43721191 -252.3840332 303.6965332 C-255.35789088 288.05024391 -255.99800362 272.57681954 -255.9375 256.6875 C-255.93534485 255.66959381 -255.9331897 254.65168762 -255.93096924 253.60293579 C-255.88129854 238.99386477 -255.63040191 224.66174147 -252.625 210.3125 C-252.42632324 209.33764648 -252.22764648 208.36279297 -252.02294922 207.35839844 C-241.90232806 158.9765226 -219.9858123 114.98821731 -185.625 79.3125 C-184.99287598 78.65314453 -184.36075195 77.99378906 -183.70947266 77.31445312 C-174.56502521 67.82619695 -165.26765991 59.0862956 -154.625 51.3125 C-153.47394983 50.45443848 -152.32290823 49.59636549 -151.171875 48.73828125 C-142.98224019 42.70072604 -134.47961724 37.31792698 -125.625 32.3125 C-124.91778809 31.9103125 -124.21057617 31.508125 -123.48193359 31.09375 C-100.34654164 18.0683259 -75.17537591 9.31948539 -49.1875 4 C-48.46860596 3.85264404 -47.74971191 3.70528809 -47.0090332 3.5534668 C-31.36274391 0.57960912 -15.88931954 -0.06050362 0 0 Z " fill="#8066ff" transform="translate(255.625,-0.3125)"/>
<path d="M0 0 C2.84374027 1.29298895 4.89894298 2.65039898 7.1005249 4.86001587 C7.68660019 5.44334183 8.27267548 6.02666779 8.87651062 6.62767029 C9.50733047 7.26568069 10.13815033 7.9036911 10.78808594 8.56103516 C11.79845665 9.57096779 11.79845665 9.57096779 12.82923889 10.6013031 C15.05239154 12.82584803 17.26837793 15.05739129 19.484375 17.2890625 C21.02521865 18.83363662 22.56650472 20.37776951 24.10821533 21.92147827 C28.16339037 25.98428698 32.21252324 30.05306622 36.26043701 34.12310791 C40.39265611 38.27579106 44.53054757 42.42281344 48.66796875 46.5703125 C56.78421499 54.70800398 64.89409083 62.85201269 73 71 C71.73540189 73.7359039 70.40717728 75.87201462 68.3653326 78.08467484 C67.82812586 78.67088269 67.29091911 79.25709055 66.73743337 79.86106229 C65.85201788 80.81243137 65.85201788 80.81243137 64.94871521 81.78302002 C64.32064297 82.46430741 63.69257074 83.1455948 63.04546601 83.84752727 C60.93336755 86.13416444 58.81368326 88.4135995 56.69311523 90.69238281 C55.95175261 91.4918697 55.21038998 92.29135658 54.44656181 93.11507034 C40.17626683 108.50009284 25.692514 123.68044733 11.11807736 138.77712651 C8.72280743 141.2583327 6.32906599 143.74100846 3.9362793 146.22460938 C3.46011691 146.71878942 2.98395452 147.21296947 2.49336297 147.72212467 C-4.663848 155.15755122 -11.70025788 162.69488003 -18.67993164 170.296875 C-86.89673888 244.51444453 -86.89673888 244.51444453 -121.9762373 246.53268051 C-137.49769078 247.03423325 -152.98623276 244.82970849 -168 241 C-174.11918563 217.44963626 -178.50654259 187.66787166 -166.54394531 165.27431774 C-148.25233206 135.37096656 -118.84433691 111.48732132 -93.17580414 87.91786158 C-85.96005743 81.28593076 -78.84057382 74.56136594 -71.77734375 67.76733398 C-71.02462086 67.04337932 -71.02462086 67.04337932 -70.25669146 66.30479931 C-67.73811289 63.88153223 -65.22104417 61.45670364 -62.70471954 59.03109634 C-42.03176418 39.10729132 -21.10523367 19.46496389 0 0 Z " fill="#FEFEFF" transform="translate(270,169)"/>
<path d="M0 0 C1.37285156 -0.04253906 1.37285156 -0.04253906 2.7734375 -0.0859375 C8.73047871 0.87698149 12.91500841 5.41349045 17.04785156 9.5390625 C17.80512543 10.29107941 17.80512543 10.29107941 18.57769775 11.05828857 C20.22870655 12.70056487 21.87237367 14.34996443 23.515625 16 C24.66781932 17.15084565 25.82031026 18.30139439 26.9730835 19.45166016 C29.38017621 21.85581346 31.78363731 24.26352381 34.18457031 26.67382812 C37.26008831 29.76076563 40.34453308 32.83860259 43.43173599 35.91384888 C45.80995833 38.28484258 48.18339468 40.66058109 50.55541229 43.03778076 C51.69103008 44.17473093 52.82813052 45.31020221 53.96674347 46.44415283 C55.55596409 48.02828897 57.13862389 49.61870436 58.71972656 51.2109375 C59.62096252 52.11376465 60.52219849 53.0165918 61.45074463 53.94677734 C64.56515358 57.42496968 65.91265286 60.024521 65.9375 64.6875 C65.95425781 65.40550781 65.97101563 66.12351562 65.98828125 66.86328125 C64.80458565 75.04732718 59.93861383 79.60025677 54.23828125 85.15234375 C53.42127243 85.96369278 52.60426361 86.77504181 51.76249695 87.61097717 C49.16343984 90.18773184 46.55079126 92.75019041 43.9375 95.3125 C42.16770304 97.06222426 40.39881227 98.81286561 38.63085938 100.56445312 C34.30601272 104.84531364 29.96993633 109.11453644 25.625 113.375 C22.78125973 112.08201105 20.72605702 110.72460102 18.5244751 108.51498413 C17.93839981 107.93165817 17.35232452 107.34833221 16.74848938 106.74732971 C16.11766953 106.10931931 15.48684967 105.4713089 14.83691406 104.81396484 C14.16333359 104.14067642 13.48975311 103.467388 12.79576111 102.7736969 C10.57260846 100.54915197 8.35662207 98.31760871 6.140625 96.0859375 C4.59978135 94.54136338 3.05849528 92.99723049 1.51678467 91.45352173 C-2.53839037 87.39071302 -6.58752324 83.32193378 -10.63543701 79.25189209 C-14.76765611 75.09920894 -18.90554757 70.95218656 -23.04296875 66.8046875 C-31.15921499 58.66699602 -39.26909083 50.52298731 -47.375 42.375 C-45.97772394 39.22259495 -44.33621824 37.08363394 -41.90673828 34.64794922 C-41.19905304 33.93395966 -40.4913678 33.21997009 -39.76223755 32.48434448 C-38.99765228 31.72380768 -38.23306702 30.96327087 -37.4453125 30.1796875 C-36.65857147 29.39103302 -35.87183044 28.60237854 -35.06124878 27.78982544 C-33.39762139 26.12483792 -31.73146906 24.46237001 -30.06298828 22.80224609 C-27.50972542 20.25968466 -24.96729109 17.70664725 -22.42578125 15.15234375 C-20.80793255 13.53581667 -19.18946354 11.91991012 -17.5703125 10.3046875 C-16.8097757 9.54010223 -16.04923889 8.77551697 -15.26565552 7.98776245 C-14.19467117 6.92623459 -14.19467117 6.92623459 -13.10205078 5.84326172 C-12.4774295 5.22023163 -11.85280823 4.59720154 -11.20925903 3.95529175 C-7.62926601 0.87097632 -4.68594009 0.06562941 0 0 Z " fill="#FDFEFF" transform="translate(344.375,101.625)"/>
</svg>
